<?xml version="1.0" ?><svg id="Layer_1" style="enable-background:new 0 0 62 62;" version="1.1" viewBox="0 0 62 62" xml:space="preserve" xmlns="http://www.w3.org/2000/svg" xmlns:xlink="http://www.w3.org/1999/xlink"><style type="text/css">
	.st0{fill:#5FD2FF;}
	.st1{fill:#FFFFFF;}
	.st2{fill:#0082ED;}
	.st3{fill:#2BA8FC;}
	.st4{fill:#CECECE;}
	.st5{fill:#F92B75;}
	.st6{fill:#3BB0FF;}
	.st7{fill:#CE004F;}
	.st8{fill:none;stroke:#ED0C68;stroke-width:5;stroke-linecap:round;stroke-linejoin:round;stroke-miterlimit:10;}
	.st9{fill:#ED0C68;}
	.st10{fill:#78DED4;}
	.st11{fill:#1E5363;}
	.st12{fill:#54C8E8;}
	.st13{fill:#F4F4F4;}
	.st14{fill:#0C82EB;}
	.st15{fill:#00B2E3;}
	.st16{fill:#68A2B9;}
	.st17{fill:#A2C5D3;}
	.st18{fill:#76777A;}
	.st19{fill:#A7A8A9;}
	.st20{fill:#D6D6D6;}
	.st21{fill:none;stroke:#F92B75;stroke-width:5;stroke-linecap:round;stroke-linejoin:round;stroke-miterlimit:10;}
	.st22{fill:#FD4A5C;}
	.st23{fill:#FF8E9F;}
	.st24{fill:none;stroke:#F458A3;stroke-width:5;stroke-linecap:round;stroke-linejoin:round;stroke-miterlimit:10;}
	.st25{fill:#FFB259;}
	.st26{fill:#F32735;}
	.st27{fill:#FF9E18;}
	.st28{fill:#FFC27A;}
	.st29{fill:#FFC56D;}
	.st30{fill:none;stroke:#FD4A5C;stroke-width:5;stroke-linecap:round;stroke-linejoin:round;stroke-miterlimit:10;}
	.st31{fill:#0069A7;}
	.st32{fill:#D8D8D8;}
	.st33{fill:#8CB7C9;}
	.st34{fill:#65BAAF;}
	.st35{fill:#00AF9A;}
	.st36{fill:#00C4B3;}
	.st37{fill:#19D3C5;}
	.st38{fill:none;stroke:#54C8E8;stroke-width:5;stroke-linecap:round;stroke-linejoin:round;stroke-miterlimit:10;}
	.st39{fill:#8331A7;}
	.st40{fill:#009383;}
	.st41{fill:#98989A;}
	.st42{fill:#636569;}
	.st43{fill:#898A8D;}
	.st44{fill:#FFB548;}
	.st45{fill:none;stroke:#FFB548;stroke-width:5;stroke-linecap:round;stroke-linejoin:round;stroke-miterlimit:10;}
	.st46{fill:#ED40A9;}
	.st47{fill:#CB007B;}
	.st48{fill:#E50695;}
	.st49{fill:#D7282F;}
	.st50{fill:#E5E5E5;}
	.st51{fill:#FFA4B4;}
	.st52{fill:#F6A7D7;}
	.st53{fill:#F478C4;}
	.st54{fill:#E0C7E6;}
	.st55{fill:#B980D0;}
	.st56{fill:#D9B7E2;}
	.st57{fill:#BADF93;}
	.st58{fill:#4C9C2E;}
	.st59{fill:#3DAE2B;}
	.st60{fill:#AADA91;}
	.st61{fill:#6ABF4B;}
	.st62{fill:#EFB8A9;}
	.st63{fill:#FECB8B;}
	.st64{fill:#BDE8EF;}
	.st65{fill:#CCA1DD;}
	.st66{fill:#B2B2B2;}
	.st67{fill:none;stroke:#FF8300;stroke-width:5;stroke-linecap:round;stroke-linejoin:round;stroke-miterlimit:10;}
	.st68{fill:none;stroke:#FF9E18;stroke-width:5;stroke-linecap:round;stroke-linejoin:round;stroke-miterlimit:10;}
	.st69{fill:#96DAEA;}
	.st70{fill:#FF8300;}
	.st71{fill:none;stroke:#6ABF4B;stroke-width:5;stroke-linecap:round;stroke-linejoin:round;stroke-miterlimit:10;}
	.st72{fill:none;}
	.st73{fill:#444444;}
	.st74{fill:#FDCF85;}
</style><g><circle class="st41" cx="31" cy="31" r="28.5"/><polygon class="st13" points="22.74,45.8 16.18,39.24 29.56,21.96 40.02,32.41  "/><circle class="st1" cx="38.42" cy="23.6" r="11.2"/><path class="st42" d="M38.42,30.74c-1.83,0-3.66-0.7-5.05-2.09c-2.79-2.79-2.79-7.32,0-10.1c2.79-2.79,7.32-2.79,10.1,0   c2.79,2.79,2.79,7.32,0,10.1C42.08,30.05,40.25,30.74,38.42,30.74z M38.42,21.46c-0.55,0-1.1,0.21-1.52,0.63   c-0.84,0.84-0.84,2.2,0,3.03c0.84,0.84,2.2,0.84,3.03,0c0.84-0.84,0.84-2.2,0-3.03C39.52,21.67,38.97,21.46,38.42,21.46z"/><path class="st43" d="M35.14,29.39c-0.64,0-1.28-0.24-1.77-0.73c-2.79-2.79-2.79-7.32,0-10.1c2.79-2.79,7.32-2.79,10.1,0   c0.98,0.98,0.98,2.56,0,3.54c-0.98,0.98-2.56,0.98-3.54,0c-0.84-0.84-2.2-0.84-3.03,0c-0.4,0.41-0.63,0.94-0.63,1.52   c0,0.57,0.22,1.11,0.63,1.52c0.98,0.98,0.98,2.56,0,3.54C36.42,29.14,35.78,29.39,35.14,29.39z"/><g><circle class="st1" cx="20.71" cy="41.26" r="8.34"/><circle class="st42" cx="20.71" cy="41.26" r="4.79"/></g><path class="st13" d="M20.71,43.76c-0.64,0-1.28-0.24-1.77-0.73L1.62,25.7c-0.98-0.98-0.98-2.56,0-3.54c0.98-0.98,2.56-0.98,3.54,0   l17.32,17.33c0.98,0.98,0.98,2.56,0,3.54C21.99,43.52,21.35,43.76,20.71,43.76z"/><path class="st32" d="M20.71,43.76c-0.64,0-1.28-0.24-1.77-0.73l-6.45-6.45c-0.98-0.98-0.98-2.56,0-3.54   c0.98-0.97,2.56-0.98,3.54,0l6.45,6.45c0.98,0.98,0.98,2.56,0,3.54C21.99,43.52,21.35,43.76,20.71,43.76z"/><path class="st42" d="M31,62C13.91,62,0,48.09,0,31C0,13.91,13.91,0,31,0s31,13.91,31,31C62,48.09,48.09,62,31,62z M31,5   C16.66,5,5,16.66,5,31c0,14.34,11.66,26,26,26s26-11.66,26-26C57,16.66,45.34,5,31,5z"/><path class="st19" d="M3.97,24.46c-0.26,0-0.53-0.04-0.79-0.13c-1.31-0.44-2.02-1.85-1.58-3.16C4.53,12.38,11.17,5.43,19.8,2.08   c1.29-0.5,2.74,0.14,3.23,1.43c0.5,1.29-0.14,2.74-1.43,3.23c-7.25,2.81-12.81,8.64-15.27,16C5.99,23.79,5.01,24.46,3.97,24.46z"/></g></svg>